<svg width="1966" height="114" viewBox="0 0 1966 114" fill="none" xmlns="http://www.w3.org/2000/svg">
<mask id="path-1-inside-1_62_87" fill="white">
<path d="M0 0H1966V114H0V0Z"/>
</mask>
<path d="M0 0H1966V114H0V0Z" fill="white"/>
<path d="M1966 113H0V115H1966V113Z" fill="white" mask="url(#path-1-inside-1_62_87)"/>
<path d="M251 70.64C248.733 70.64 246.813 70.0667 245.24 68.92C243.693 67.7733 242.507 66.0933 241.68 63.88C240.853 61.6667 240.44 58.9867 240.44 55.84C240.44 52.64 240.853 49.9333 241.68 47.72C242.507 45.5067 243.693 43.8267 245.24 42.68C246.813 41.5333 248.733 40.96 251 40.96C253.267 40.96 255.187 41.5333 256.76 42.68C258.333 43.8267 259.52 45.5067 260.32 47.72C261.147 49.9333 261.56 52.64 261.56 55.84C261.56 58.9867 261.147 61.6667 260.32 63.88C259.52 66.0933 258.333 67.7733 256.76 68.92C255.187 70.0667 253.267 70.64 251 70.64ZM251 66.72C252.333 66.72 253.453 66.32 254.36 65.52C255.293 64.72 256 63.5067 256.48 61.88C256.96 60.2533 257.2 58.24 257.2 55.84C257.2 53.44 256.96 51.4267 256.48 49.8C256 48.1467 255.293 46.92 254.36 46.12C253.453 45.2933 252.333 44.88 251 44.88C249.667 44.88 248.533 45.2933 247.6 46.12C246.693 46.92 246 48.1467 245.52 49.8C245.04 51.4267 244.8 53.44 244.8 55.84C244.8 58.24 245.04 60.2533 245.52 61.88C246 63.5067 246.693 64.72 247.6 65.52C248.533 66.32 249.667 66.72 251 66.72ZM272.464 70L264.784 48.72H269.144L274.984 65.72L280.824 48.72H285.184L277.504 70H272.464ZM299.249 70.48C297.249 70.48 295.502 70.0267 294.009 69.12C292.542 68.2133 291.395 66.92 290.569 65.24C289.769 63.56 289.369 61.6 289.369 59.36C289.369 57.12 289.769 55.1733 290.569 53.52C291.395 51.8667 292.529 50.5733 293.969 49.64C295.435 48.7067 297.155 48.24 299.129 48.24C301.022 48.24 302.689 48.6933 304.129 49.6C305.569 50.48 306.689 51.76 307.489 53.44C308.315 55.0933 308.729 57.0933 308.729 59.44V60.56H293.609C293.742 62.5867 294.302 64.1333 295.289 65.2C296.302 66.24 297.635 66.76 299.289 66.76C300.542 66.76 301.582 66.4667 302.409 65.88C303.235 65.2667 303.809 64.48 304.129 63.52L308.369 63.8C307.755 65.8267 306.649 67.4533 305.049 68.68C303.475 69.88 301.542 70.48 299.249 70.48ZM293.609 57.32H304.369C304.209 55.5067 303.649 54.16 302.689 53.28C301.755 52.4 300.569 51.96 299.129 51.96C297.635 51.96 296.409 52.4133 295.449 53.32C294.489 54.2267 293.875 55.56 293.609 57.32ZM319.713 70V48.72H322.913L323.273 54.16L322.913 54.12C323.18 52.28 323.753 50.92 324.633 50.04C325.513 49.16 326.726 48.72 328.273 48.72H332.793V52.24H328.433C327.42 52.24 326.566 52.44 325.873 52.84C325.18 53.2133 324.646 53.7867 324.273 54.56C323.926 55.3067 323.753 56.24 323.753 57.36V70H319.713ZM314.313 70V66.6H330.393V70H314.313ZM314.313 52.12V48.72H321.993V52.12H314.313ZM336.378 70V48.72H339.898L340.058 53.52L339.618 53.4C339.884 51.7733 340.404 50.5067 341.178 49.6C341.978 48.6933 342.978 48.24 344.178 48.24C345.458 48.24 346.418 48.6933 347.058 49.6C347.724 50.5067 348.138 51.8533 348.298 53.64H347.858C348.098 51.9333 348.644 50.6133 349.498 49.68C350.351 48.72 351.418 48.24 352.698 48.24C354.378 48.24 355.591 48.8267 356.338 50C357.111 51.1467 357.498 53.0267 357.498 55.64V70H353.578V56.32C353.578 54.6133 353.391 53.4267 353.018 52.76C352.671 52.0933 352.124 51.76 351.378 51.76C350.898 51.76 350.458 51.92 350.058 52.24C349.684 52.56 349.391 53.0667 349.178 53.76C348.964 54.4267 348.858 55.3067 348.858 56.4V70H345.018V56.32C345.018 54.6667 344.844 53.4933 344.498 52.8C344.178 52.1067 343.631 51.76 342.858 51.76C342.351 51.76 341.911 51.92 341.538 52.24C341.164 52.56 340.858 53.0667 340.618 53.76C340.404 54.4267 340.298 55.3067 340.298 56.4V70H336.378ZM370.282 70V48.72H374.362V70H370.282ZM361.962 70V66.6H381.482V70H361.962ZM362.362 52.12V48.72H374.002V52.12H362.362ZM370.042 45.64V41.44H374.202V45.64H370.042ZM386.106 70V48.72H389.826L389.946 54.28L389.506 53.96C389.773 52.6533 390.24 51.5867 390.906 50.76C391.6 49.9067 392.44 49.28 393.426 48.88C394.413 48.4533 395.466 48.24 396.586 48.24C398.186 48.24 399.506 48.6 400.546 49.32C401.586 50.0133 402.373 50.9733 402.906 52.2C403.44 53.4 403.706 54.76 403.706 56.28V70H399.666V57.32C399.666 55.48 399.306 54.0933 398.586 53.16C397.893 52.2267 396.84 51.76 395.426 51.76C394.44 51.76 393.546 51.9733 392.746 52.4C391.973 52.8267 391.346 53.4667 390.866 54.32C390.386 55.1467 390.146 56.1733 390.146 57.4V70H386.106ZM417.211 70.48C415.397 70.48 413.824 70.04 412.491 69.16C411.157 68.2533 410.131 66.9733 409.411 65.32C408.691 63.64 408.331 61.6533 408.331 59.36C408.331 57.0667 408.691 55.0933 409.411 53.44C410.131 51.76 411.157 50.48 412.491 49.6C413.824 48.6933 415.397 48.24 417.211 48.24C418.704 48.24 420.011 48.5867 421.131 49.28C422.251 49.9733 423.064 50.7867 423.571 51.72V41.6H427.611V70H423.851L423.731 66.72C423.144 67.8667 422.291 68.7867 421.171 69.48C420.051 70.1467 418.731 70.48 417.211 70.48ZM417.891 66.76C419.064 66.76 420.064 66.4667 420.891 65.88C421.744 65.2667 422.397 64.4133 422.851 63.32C423.331 62.2 423.571 60.88 423.571 59.36C423.571 57.7867 423.331 56.4533 422.851 55.36C422.397 54.2667 421.744 53.4267 420.891 52.84C420.037 52.2533 419.011 51.96 417.811 51.96C416.184 51.96 414.904 52.6133 413.971 53.92C413.037 55.2267 412.571 57.04 412.571 59.36C412.571 61.6533 413.037 63.4667 413.971 64.8C414.904 66.1067 416.211 66.76 417.891 66.76ZM466.979 70.64C464.686 70.64 462.739 70.04 461.139 68.84C459.566 67.64 458.366 65.9333 457.539 63.72C456.713 61.5067 456.299 58.88 456.299 55.84C456.299 52.7733 456.713 50.1333 457.539 47.92C458.366 45.7067 459.566 44 461.139 42.8C462.739 41.5733 464.686 40.96 466.979 40.96C469.566 40.96 471.739 41.8133 473.499 43.52C475.286 45.2267 476.459 47.6133 477.019 50.68L472.619 50.92C472.219 48.9467 471.513 47.4533 470.499 46.44C469.513 45.4 468.339 44.88 466.979 44.88C465.593 44.88 464.433 45.3067 463.499 46.16C462.566 47.0133 461.859 48.2533 461.379 49.88C460.899 51.5067 460.659 53.4933 460.659 55.84C460.659 58.16 460.899 60.1333 461.379 61.76C461.859 63.36 462.566 64.5867 463.499 65.44C464.433 66.2933 465.593 66.72 466.979 66.72C468.446 66.72 469.699 66.16 470.739 65.04C471.779 63.92 472.473 62.28 472.819 60.12L477.179 60.32C476.699 63.5733 475.566 66.1067 473.779 67.92C471.993 69.7333 469.726 70.64 466.979 70.64ZM482.564 70V41.6H486.604V53.36L486.204 53.2C486.47 52.0533 486.924 51.12 487.564 50.4C488.204 49.6533 488.977 49.1067 489.884 48.76C490.79 48.4133 491.79 48.24 492.884 48.24C494.377 48.24 495.63 48.5867 496.644 49.28C497.684 49.9467 498.457 50.8933 498.964 52.12C499.497 53.32 499.764 54.7067 499.764 56.28V70H495.724V57.32C495.724 55.4 495.377 54 494.684 53.12C494.017 52.2133 493.017 51.76 491.684 51.76C490.164 51.76 488.937 52.24 488.004 53.2C487.07 54.16 486.604 55.5733 486.604 57.44V70H482.564ZM511.948 70.48C510.615 70.48 509.415 70.24 508.348 69.76C507.281 69.28 506.428 68.6 505.788 67.72C505.175 66.84 504.868 65.8133 504.868 64.64C504.868 62.8267 505.415 61.4133 506.508 60.4C507.628 59.3867 509.308 58.6667 511.548 58.24L518.428 56.8C518.428 55.1467 518.068 53.9067 517.348 53.08C516.628 52.2533 515.548 51.84 514.108 51.84C512.775 51.84 511.735 52.1467 510.988 52.76C510.241 53.3733 509.735 54.2267 509.468 55.32L505.228 55.04C505.628 53.0133 506.601 51.3733 508.148 50.12C509.695 48.8667 511.681 48.24 514.108 48.24C516.828 48.24 518.895 49.0133 520.308 50.56C521.748 52.1067 522.468 54.24 522.468 56.96V65.36C522.468 65.84 522.575 66.1867 522.788 66.4C523.001 66.5867 523.308 66.68 523.708 66.68H524.908V70C524.748 70.0267 524.481 70.0533 524.108 70.08C523.761 70.1067 523.415 70.12 523.068 70.12C522.108 70.12 521.295 69.96 520.628 69.64C519.961 69.32 519.455 68.8267 519.108 68.16C518.788 67.4667 518.601 66.6 518.548 65.56H519.188C519.028 66.4933 518.615 67.3333 517.948 68.08C517.281 68.8267 516.428 69.4133 515.388 69.84C514.348 70.2667 513.201 70.48 511.948 70.48ZM512.548 67.16C513.828 67.16 514.908 66.9333 515.788 66.48C516.668 66.0267 517.321 65.3867 517.748 64.56C518.201 63.7333 518.428 62.76 518.428 61.64V60L512.508 61.2C511.228 61.44 510.335 61.8133 509.828 62.32C509.321 62.8267 509.068 63.4933 509.068 64.32C509.068 65.2 509.375 65.8933 509.988 66.4C510.601 66.9067 511.455 67.16 512.548 67.16ZM530.013 70V48.72H533.733L533.853 54.28L533.413 53.96C533.679 52.6533 534.146 51.5867 534.813 50.76C535.506 49.9067 536.346 49.28 537.333 48.88C538.319 48.4533 539.373 48.24 540.493 48.24C542.093 48.24 543.413 48.6 544.453 49.32C545.493 50.0133 546.279 50.9733 546.812 52.2C547.346 53.4 547.613 54.76 547.613 56.28V70H543.573V57.32C543.573 55.48 543.213 54.0933 542.493 53.16C541.799 52.2267 540.746 51.76 539.333 51.76C538.346 51.76 537.453 51.9733 536.653 52.4C535.879 52.8267 535.253 53.4667 534.773 54.32C534.293 55.1467 534.053 56.1733 534.053 57.4V70H530.013ZM562.677 76.48C561.077 76.48 559.65 76.2267 558.397 75.72C557.144 75.2133 556.104 74.4933 555.277 73.56C554.477 72.6267 553.917 71.5467 553.597 70.32L557.837 70.04C558.13 70.92 558.65 71.6133 559.397 72.12C560.144 72.6267 561.237 72.88 562.677 72.88C564.464 72.88 565.824 72.5067 566.757 71.76C567.717 71.0133 568.197 69.9067 568.197 68.44V65.32C567.69 66.4133 566.89 67.28 565.797 67.92C564.73 68.56 563.49 68.88 562.077 68.88C560.317 68.88 558.744 68.44 557.357 67.56C555.97 66.68 554.89 65.48 554.117 63.96C553.344 62.4133 552.957 60.64 552.957 58.64C552.957 56.56 553.33 54.7467 554.077 53.2C554.85 51.6533 555.917 50.44 557.277 49.56C558.637 48.68 560.184 48.24 561.917 48.24C563.41 48.24 564.717 48.5867 565.837 49.28C566.984 49.9467 567.81 50.8667 568.317 52.04L568.357 48.72H572.237V68.16C572.237 69.9467 571.85 71.4533 571.077 72.68C570.304 73.9333 569.197 74.88 567.757 75.52C566.344 76.16 564.65 76.48 562.677 76.48ZM562.637 65.28C564.29 65.28 565.624 64.6933 566.637 63.52C567.65 62.3467 568.17 60.7067 568.197 58.6C568.224 57.16 567.997 55.9467 567.517 54.96C567.064 53.9467 566.41 53.1733 565.557 52.64C564.73 52.1067 563.757 51.84 562.637 51.84C560.904 51.84 559.557 52.44 558.597 53.64C557.664 54.8133 557.197 56.4667 557.197 58.6C557.197 60.7067 557.677 62.3467 558.637 63.52C559.624 64.6933 560.957 65.28 562.637 65.28ZM587.061 70.48C585.061 70.48 583.315 70.0267 581.821 69.12C580.355 68.2133 579.208 66.92 578.381 65.24C577.581 63.56 577.181 61.6 577.181 59.36C577.181 57.12 577.581 55.1733 578.381 53.52C579.208 51.8667 580.341 50.5733 581.781 49.64C583.248 48.7067 584.968 48.24 586.941 48.24C588.835 48.24 590.501 48.6933 591.941 49.6C593.381 50.48 594.501 51.76 595.301 53.44C596.128 55.0933 596.541 57.0933 596.541 59.44V60.56H581.421C581.555 62.5867 582.115 64.1333 583.101 65.2C584.115 66.24 585.448 66.76 587.101 66.76C588.355 66.76 589.395 66.4667 590.221 65.88C591.048 65.2667 591.621 64.48 591.941 63.52L596.181 63.8C595.568 65.8267 594.461 67.4533 592.861 68.68C591.288 69.88 589.355 70.48 587.061 70.48ZM581.421 57.32H592.181C592.021 55.5067 591.461 54.16 590.501 53.28C589.568 52.4 588.381 51.96 586.941 51.96C585.448 51.96 584.221 52.4133 583.261 53.32C582.301 54.2267 581.688 55.56 581.421 57.32ZM625.43 70V41.6H634.27C637.283 41.6 639.643 42.36 641.35 43.88C643.083 45.4 643.95 47.4667 643.95 50.08C643.95 51.44 643.643 52.64 643.03 53.68C642.443 54.72 641.657 55.5333 640.67 56.12C639.71 56.7067 638.683 57.04 637.59 57.12L637.43 56.64C639.403 56.72 640.87 57.1733 641.83 58C642.817 58.8 643.39 60.1067 643.55 61.92L644.27 70H640.07L639.43 62.72C639.35 61.7867 639.15 61.04 638.83 60.48C638.51 59.92 638.017 59.52 637.35 59.28C636.683 59.04 635.763 58.92 634.59 58.92H629.63V70H625.43ZM629.63 55H634.19C635.95 55 637.297 54.5867 638.23 53.76C639.163 52.9333 639.63 51.7733 639.63 50.28C639.63 48.76 639.163 47.6 638.23 46.8C637.297 45.9733 635.95 45.56 634.19 45.56H629.63V55ZM659.014 70.48C657.014 70.48 655.268 70.0267 653.774 69.12C652.308 68.2133 651.161 66.92 650.334 65.24C649.534 63.56 649.134 61.6 649.134 59.36C649.134 57.12 649.534 55.1733 650.334 53.52C651.161 51.8667 652.294 50.5733 653.734 49.64C655.201 48.7067 656.921 48.24 658.894 48.24C660.788 48.24 662.454 48.6933 663.894 49.6C665.334 50.48 666.454 51.76 667.254 53.44C668.081 55.0933 668.494 57.0933 668.494 59.44V60.56H653.374C653.508 62.5867 654.068 64.1333 655.054 65.2C656.068 66.24 657.401 66.76 659.054 66.76C660.308 66.76 661.348 66.4667 662.174 65.88C663.001 65.2667 663.574 64.48 663.894 63.52L668.134 63.8C667.521 65.8267 666.414 67.4533 664.814 68.68C663.241 69.88 661.308 70.48 659.014 70.48ZM653.374 57.32H664.134C663.974 55.5067 663.414 54.16 662.454 53.28C661.521 52.4 660.334 51.96 658.894 51.96C657.401 51.96 656.174 52.4133 655.214 53.32C654.254 54.2267 653.641 55.56 653.374 57.32ZM673.599 76V48.72H677.439L677.519 53.56L677.039 53.32C677.572 51.6667 678.439 50.4133 679.639 49.56C680.865 48.68 682.305 48.24 683.959 48.24C686.012 48.24 687.692 48.76 688.999 49.8C690.305 50.8133 691.279 52.16 691.919 53.84C692.559 55.52 692.879 57.36 692.879 59.36C692.879 61.36 692.559 63.2 691.919 64.88C691.279 66.56 690.305 67.92 688.999 68.96C687.692 69.9733 686.012 70.48 683.959 70.48C682.865 70.48 681.852 70.3067 680.919 69.96C679.985 69.5867 679.185 69.0667 678.519 68.4C677.879 67.7067 677.412 66.88 677.119 65.92L677.639 65.36V76H673.599ZM683.199 66.76C684.905 66.76 686.239 66.12 687.199 64.84C688.159 63.56 688.639 61.7333 688.639 59.36C688.639 56.9867 688.159 55.16 687.199 53.88C686.239 52.6 684.905 51.96 683.199 51.96C682.079 51.96 681.105 52.24 680.279 52.8C679.452 53.3333 678.799 54.1467 678.319 55.24C677.865 56.3333 677.639 57.7067 677.639 59.36C677.639 61.0133 677.865 62.3867 678.319 63.48C678.772 64.5733 679.412 65.4 680.239 65.96C681.092 66.4933 682.079 66.76 683.199 66.76ZM706.703 70.48C704.73 70.48 702.996 70.0267 701.503 69.12C700.036 68.2133 698.89 66.92 698.063 65.24C697.263 63.56 696.863 61.6 696.863 59.36C696.863 57.0933 697.263 55.1333 698.063 53.48C698.89 51.8 700.036 50.5067 701.503 49.6C702.996 48.6933 704.73 48.24 706.703 48.24C708.676 48.24 710.396 48.6933 711.863 49.6C713.356 50.5067 714.503 51.8 715.303 53.48C716.13 55.1333 716.543 57.0933 716.543 59.36C716.543 61.6 716.13 63.56 715.303 65.24C714.503 66.92 713.356 68.2133 711.863 69.12C710.396 70.0267 708.676 70.48 706.703 70.48ZM706.703 66.76C708.49 66.76 709.863 66.1067 710.823 64.8C711.81 63.4933 712.303 61.68 712.303 59.36C712.303 57.04 711.81 55.2267 710.823 53.92C709.863 52.6133 708.49 51.96 706.703 51.96C704.916 51.96 703.53 52.6133 702.543 53.92C701.583 55.2267 701.103 57.04 701.103 59.36C701.103 61.68 701.583 63.4933 702.543 64.8C703.53 66.1067 704.916 66.76 706.703 66.76ZM727.448 70V48.72H730.648L731.008 54.16L730.648 54.12C730.914 52.28 731.488 50.92 732.368 50.04C733.248 49.16 734.461 48.72 736.008 48.72H740.528V52.24H736.168C735.154 52.24 734.301 52.44 733.608 52.84C732.914 53.2133 732.381 53.7867 732.008 54.56C731.661 55.3067 731.488 56.24 731.488 57.36V70H727.448ZM722.048 70V66.6H738.128V70H722.048ZM722.048 52.12V48.72H729.728V52.12H722.048ZM757.712 70C755.552 70 753.939 69.5067 752.872 68.52C751.832 67.5067 751.312 65.96 751.312 63.88V43.72H755.352V63.68C755.352 64.6667 755.579 65.4 756.032 65.88C756.512 66.36 757.219 66.6 758.152 66.6H763.632V70H757.712ZM744.592 52.12V48.72H763.632V52.12H744.592Z" fill="#0D1116"/>
<path d="M50.0526 85C33.9972 85 21 71.95 21 56C21 39.9737 34.0737 27 50.0526 27C66.0316 27 79.1053 40.05 79.1053 56C79.1818 72.0264 66.1081 85 50.0526 85ZM50.0526 40.8132C41.6427 40.8132 34.8382 47.6053 34.8382 56C34.8382 64.3949 41.6427 71.187 50.0526 71.187C58.4627 71.187 65.2672 64.3949 65.2672 56C65.2672 47.6053 58.4627 40.8132 50.0526 40.8132Z" fill="#0D1116"/>
<path d="M104.412 85C101.965 85 99.6718 84.0842 97.9897 82.3288L60.0686 44.4763C57.3925 41.8052 57.3925 37.3789 60.0686 34.7079C62.7443 32.0368 67.1787 32.0368 69.8545 34.7079L104.412 69.2027L121.614 52.0315C124.29 49.3605 128.724 49.3605 131.4 52.0315C134.076 54.7026 134.076 59.1289 131.4 61.8L110.758 82.4051C109.076 84.0842 106.858 85 104.412 85Z" fill="#0D1116"/>
<path d="M136.827 84.9999C135.069 84.9999 133.31 84.313 131.934 82.9393C129.258 80.2684 129.258 75.8421 131.934 73.1712L138.05 67.0657C144.014 61.113 144.014 51.3447 138.05 45.3157C132.087 39.3631 122.301 39.3631 116.261 45.3157L108.845 52.7184C106.169 55.3894 101.735 55.3894 99.0588 52.7184C96.3827 50.0473 96.3827 45.621 99.0588 42.9499L106.475 35.5473C117.867 24.1763 136.445 24.1763 147.837 35.5473C159.228 46.9184 159.228 65.463 147.837 76.8342L141.72 82.9393C140.344 84.313 138.586 84.9999 136.827 84.9999Z" fill="#0D1116"/>
<path d="M182.777 84.2369C181.018 84.2369 179.26 83.5499 177.884 82.1763C175.208 79.5051 175.208 75.079 177.884 72.4078L183.236 67.0657C189.199 61.113 189.199 51.3447 183.236 45.3157C177.272 39.3631 167.486 39.3631 161.446 45.3157L154.336 52.4131C151.66 55.0842 147.226 55.0842 144.55 52.4131C141.874 49.7421 141.874 45.3157 144.55 42.6447L151.66 35.5473C163.052 24.1763 181.63 24.1763 193.022 35.5473C204.414 46.9184 204.414 65.463 193.022 76.8342L187.67 82.1763C186.294 83.6263 184.535 84.2369 182.777 84.2369Z" fill="#0D1116"/>
</svg>
