<svg width="14" height="14" viewBox="0 0 14 14" fill="none" xmlns="http://www.w3.org/2000/svg">
<path fill-rule="evenodd" clip-rule="evenodd" d="M3.64582 1.31256C2.35716 1.31256 1.31249 2.35723 1.31249 3.64589L1.3125 10.354C1.3125 11.6427 2.35715 12.6873 3.64581 12.6873L10.3541 12.6874C11.6428 12.6874 12.6875 11.6427 12.6875 10.3541V3.64589C12.6875 2.35722 11.6428 1.31255 10.3542 1.31255L3.64582 1.31256ZM4.94063 6.69055C4.97618 6.65501 5.01721 6.62621 5.06173 6.60499C5.17628 6.55038 5.30633 6.59997 5.41192 6.67036C5.84372 6.95823 6.40626 6.95823 6.83807 6.67036L6.99999 6.56241C7.52985 6.20917 8.25665 6.14738 8.79524 6.48716C8.89572 6.55055 8.98643 6.61763 9.05935 6.69055C9.1414 6.7726 9.18749 6.88388 9.18749 6.99991C9.18749 7.11594 9.1414 7.22722 9.05935 7.30927C9.02381 7.34481 8.98278 7.37361 8.93825 7.39483C8.8237 7.44944 8.69365 7.39985 8.58807 7.32946C8.15626 7.04159 7.59372 7.04159 7.16192 7.32946L6.99999 7.43741C6.47013 7.79065 5.74333 7.85244 5.20474 7.51266C5.10427 7.44927 5.01356 7.38219 4.94063 7.30927C4.85859 7.22722 4.81249 7.11594 4.81249 6.99991C4.81249 6.88388 4.85859 6.7726 4.94063 6.69055Z" fill="#655ADD"/>
</svg>
