<svg width="14" height="14" viewBox="0 0 14 14" fill="none" xmlns="http://www.w3.org/2000/svg">
<path d="M7 6.5625C9.89917 6.5625 12.25 5.28908 12.25 3.71875C12.25 2.14842 9.89917 0.875 7 0.875C4.10083 0.875 1.75 2.14842 1.75 3.71875C1.75 5.28908 4.10083 6.5625 7 6.5625Z" fill="#655ADD"/>
<path d="M10.4022 6.83543C9.41911 7.22234 8.2426 7.4375 7 7.4375C5.43375 7.4375 3.97192 7.09567 2.87117 6.49892C2.46585 6.28371 2.09324 6.01187 1.76458 5.69158C1.75525 5.76217 1.75 5.83392 1.75 5.90625C1.75 7.47658 4.10083 8.75 7 8.75C7.56785 8.75 8.11466 8.70115 8.62689 8.61078L10.4022 6.83543Z" fill="#655ADD"/>
<path d="M7.63135 9.60632L6.49607 10.7416C6.44046 10.7972 6.38874 10.8552 6.3409 10.9153C3.75276 10.7396 1.75 9.54317 1.75 8.09375C1.75 8.02142 1.75525 7.94967 1.76458 7.87908C2.09324 8.19937 2.46584 8.47122 2.87117 8.68642C3.97192 9.28317 5.43375 9.625 7 9.625C7.2126 9.625 7.42326 9.6187 7.63135 9.60632Z" fill="#655ADD"/>
<path d="M5.94268 11.7597C5.84876 12.2024 5.90315 12.6703 6.10585 13.0839C3.6325 12.854 1.75 11.6865 1.75 10.2813C1.75 10.2089 1.75525 10.1372 1.76458 10.0666C2.09324 10.3869 2.46584 10.6587 2.87117 10.8739C3.71965 11.3339 4.78267 11.6424 5.94268 11.7597Z" fill="#655ADD"/>
<path d="M13.2031 7.21353C13.0664 7.07681 12.881 7 12.6876 7C12.4942 7 12.3088 7.07681 12.172 7.21353L11.8506 7.53492L12.8818 8.56603L13.2031 8.24464C13.3399 8.1079 13.4167 7.92245 13.4167 7.72908C13.4167 7.53572 13.3399 7.35027 13.2031 7.21353ZM12.587 8.86075L11.5559 7.82964L8.18091 11.2046C8.00947 11.376 7.88345 11.5874 7.81424 11.8196L7.59201 12.5655C7.58129 12.6015 7.58049 12.6397 7.5897 12.6761C7.59891 12.7125 7.6178 12.7458 7.64435 12.7723C7.67091 12.7989 7.70415 12.8178 7.74056 12.827C7.77697 12.8362 7.81519 12.8354 7.85118 12.8247L8.59702 12.6024C8.8293 12.5332 9.04067 12.4072 9.21202 12.2358L12.587 8.86075Z" fill="#655ADD"/>
</svg>
