<svg width="14" height="14" viewBox="0 0 14 14" fill="none" xmlns="http://www.w3.org/2000/svg">
<path fill-rule="evenodd" clip-rule="evenodd" d="M3.64583 1.3125C2.35717 1.3125 1.3125 2.35717 1.3125 3.64584L1.3125 10.354C1.3125 11.6427 2.35711 12.6873 3.64573 12.6873C5.88188 12.6874 8.11803 12.6874 10.3542 12.6874C11.6428 12.6874 12.6875 11.6427 12.6875 10.354V3.64583C12.6875 2.35717 11.6428 1.3125 10.3542 1.3125L3.64583 1.3125ZM7.43752 5.24987C7.43752 5.13384 7.39142 5.02256 7.30938 4.94051C7.22733 4.85847 7.11605 4.81237 7.00002 4.81237C6.88399 4.81237 6.7727 4.85847 6.69066 4.94051C6.60861 5.02256 6.56252 5.13384 6.56252 5.24987V6.56237H5.25002C5.13399 6.56237 5.02271 6.60847 4.94066 6.69051C4.85861 6.77256 4.81252 6.88384 4.81252 6.99987C4.81252 7.11591 4.85861 7.22719 4.94066 7.30923C5.02271 7.39128 5.13399 7.43737 5.25002 7.43737H6.56252V8.74987C6.56252 8.86591 6.60861 8.97719 6.69066 9.05923C6.7727 9.14128 6.88399 9.18737 7.00002 9.18737C7.11605 9.18737 7.22733 9.14128 7.30938 9.05923C7.39142 8.97719 7.43752 8.86591 7.43752 8.74987V7.43737H8.75002C8.86605 7.43737 8.97733 7.39128 9.05938 7.30923C9.14142 7.22719 9.18751 7.11591 9.18751 6.99987C9.18751 6.88384 9.14142 6.77256 9.05938 6.69051C8.97733 6.60847 8.86605 6.56237 8.75002 6.56237H7.43752V5.24987Z" fill="#5AB855"/>
</svg>
