<svg width="14" height="14" viewBox="0 0 14 14" fill="none" xmlns="http://www.w3.org/2000/svg">
<path fill-rule="evenodd" clip-rule="evenodd" d="M3.64573 12.6873C2.35711 12.6873 1.3125 11.6427 1.3125 10.354L1.3125 3.64584C1.3125 2.35717 2.35717 1.3125 3.64583 1.3125L10.3542 1.3125C11.6428 1.3125 12.6875 2.35717 12.6875 3.64583V10.354C12.6875 11.6427 11.6428 12.6874 10.3542 12.6874C10.3353 12.6874 10.3163 12.6874 10.2974 12.6874C8.0802 12.6874 5.86297 12.6874 3.64573 12.6873ZM5.25002 6.56237H8.75002C8.86605 6.56237 8.97733 6.60847 9.05938 6.69051C9.14142 6.77256 9.18751 6.88384 9.18751 6.99987C9.18751 7.11591 9.14142 7.22719 9.05938 7.30923C8.97733 7.39128 8.86605 7.43737 8.75002 7.43737H5.25002C5.13399 7.43737 5.02271 7.39128 4.94066 7.30923C4.85861 7.22719 4.81252 7.11591 4.81252 6.99987C4.81252 6.88384 4.85861 6.77256 4.94066 6.69051C5.02271 6.60847 5.13399 6.56237 5.25002 6.56237Z" fill="#BE4E54"/>
</svg>
