<svg width="14" height="14" viewBox="0 0 14 14" fill="none" xmlns="http://www.w3.org/2000/svg">
<path d="M3.5 1.75C3.03587 1.75 2.59075 1.93437 2.26256 2.26256C1.93437 2.59075 1.75 3.03587 1.75 3.5V4.375C1.75 4.49103 1.79609 4.60231 1.87814 4.68436C1.96019 4.76641 2.07147 4.8125 2.1875 4.8125C2.30353 4.8125 2.41481 4.76641 2.49686 4.68436C2.57891 4.60231 2.625 4.49103 2.625 4.375V3.5C2.625 3.26794 2.71719 3.04538 2.88128 2.88128C3.04538 2.71719 3.26794 2.625 3.5 2.625H4.375C4.49103 2.625 4.60231 2.57891 4.68436 2.49686C4.76641 2.41481 4.8125 2.30353 4.8125 2.1875C4.8125 2.07147 4.76641 1.96019 4.68436 1.87814C4.60231 1.79609 4.49103 1.75 4.375 1.75H3.5ZM9.625 1.75C9.50897 1.75 9.39769 1.79609 9.31564 1.87814C9.23359 1.96019 9.1875 2.07147 9.1875 2.1875C9.1875 2.30353 9.23359 2.41481 9.31564 2.49686C9.39769 2.57891 9.50897 2.625 9.625 2.625H10.5C10.7321 2.625 10.9546 2.71719 11.1187 2.88128C11.2828 3.04538 11.375 3.26794 11.375 3.5V4.375C11.375 4.49103 11.4211 4.60231 11.5031 4.68436C11.5852 4.76641 11.6965 4.8125 11.8125 4.8125C11.9285 4.8125 12.0398 4.76641 12.1219 4.68436C12.2039 4.60231 12.25 4.49103 12.25 4.375V3.5C12.25 3.03587 12.0656 2.59075 11.7374 2.26256C11.4092 1.93437 10.9641 1.75 10.5 1.75H9.625ZM7 4.8125C6.41984 4.8125 5.86344 5.04297 5.4532 5.4532C5.04297 5.86344 4.8125 6.41984 4.8125 7C4.8125 7.58016 5.04297 8.13656 5.4532 8.5468C5.86344 8.95703 6.41984 9.1875 7 9.1875C7.58016 9.1875 8.13656 8.95703 8.5468 8.5468C8.95703 8.13656 9.1875 7.58016 9.1875 7C9.1875 6.41984 8.95703 5.86344 8.5468 5.4532C8.13656 5.04297 7.58016 4.8125 7 4.8125ZM2.625 9.625C2.625 9.50897 2.57891 9.39769 2.49686 9.31564C2.41481 9.23359 2.30353 9.1875 2.1875 9.1875C2.07147 9.1875 1.96019 9.23359 1.87814 9.31564C1.79609 9.39769 1.75 9.50897 1.75 9.625V10.5C1.75 10.9641 1.93437 11.4092 2.26256 11.7374C2.59075 12.0656 3.03587 12.25 3.5 12.25H4.375C4.49103 12.25 4.60231 12.2039 4.68436 12.1219C4.76641 12.0398 4.8125 11.9285 4.8125 11.8125C4.8125 11.6965 4.76641 11.5852 4.68436 11.5031C4.60231 11.4211 4.49103 11.375 4.375 11.375H3.5C3.26794 11.375 3.04538 11.2828 2.88128 11.1187C2.71719 10.9546 2.625 10.7321 2.625 10.5V9.625ZM12.25 9.625C12.25 9.50897 12.2039 9.39769 12.1219 9.31564C12.0398 9.23359 11.9285 9.1875 11.8125 9.1875C11.6965 9.1875 11.5852 9.23359 11.5031 9.31564C11.4211 9.39769 11.375 9.50897 11.375 9.625V10.5C11.375 10.7321 11.2828 10.9546 11.1187 11.1187C10.9546 11.2828 10.7321 11.375 10.5 11.375H9.625C9.50897 11.375 9.39769 11.4211 9.31564 11.5031C9.23359 11.5852 9.1875 11.6965 9.1875 11.8125C9.1875 11.9285 9.23359 12.0398 9.31564 12.1219C9.39769 12.2039 9.50897 12.25 9.625 12.25H10.5C10.9641 12.25 11.4092 12.0656 11.7374 11.7374C12.0656 11.4092 12.25 10.9641 12.25 10.5V9.625Z" fill="#626262"/>
</svg>
