<svg width="14" height="14" viewBox="0 0 14 14" fill="none" xmlns="http://www.w3.org/2000/svg">
<path fill-rule="evenodd" clip-rule="evenodd" d="M7.56174 1.33355C7.52658 1.28644 7.48229 1.24689 7.43152 1.21728C7.38074 1.18766 7.32452 1.16858 7.26621 1.16118C7.2079 1.15378 7.14869 1.1582 7.09213 1.17418C7.03556 1.19017 6.9828 1.21738 6.93699 1.25421C5.81893 2.15186 5.08151 3.43896 4.87257 4.85746C4.48933 4.57927 4.15348 4.24106 3.87798 3.85588C3.84055 3.80356 3.79204 3.76013 3.73591 3.7287C3.67977 3.69727 3.6174 3.6786 3.55323 3.67404C3.48905 3.66947 3.42466 3.67911 3.36464 3.70227C3.30462 3.72544 3.25045 3.76155 3.20598 3.80805C2.4355 4.61388 1.94155 5.64407 1.7957 6.74939C1.64984 7.85472 1.85965 8.97777 2.39474 9.95588C2.92982 10.934 3.76239 11.7164 4.77185 12.1897C5.78131 12.663 6.91523 12.8026 8.00936 12.5884C9.10349 12.3742 10.101 11.8172 10.8574 10.9981C11.6138 10.1791 12.0899 9.14048 12.2166 8.03279C12.3433 6.92511 12.114 5.80585 11.5621 4.83716C11.0101 3.86846 10.1642 3.10063 9.14665 2.64488C8.52114 2.34071 7.97765 1.89104 7.56174 1.33355ZM9.18748 8.31255C9.18727 8.62896 9.11841 8.94157 8.98565 9.22879C8.8529 9.51602 8.65942 9.77102 8.41855 9.97621C8.17769 10.1814 7.89518 10.3319 7.59051 10.4173C7.28583 10.5027 6.96626 10.521 6.65383 10.471C6.3414 10.4209 6.04355 10.3036 5.78083 10.1273C5.51811 9.95095 5.29677 9.71971 5.13209 9.44952C4.96742 9.17933 4.86331 8.87663 4.82697 8.56231C4.79062 8.24799 4.8229 7.92952 4.92157 7.62888C5.2879 7.90013 5.70907 8.10138 6.16582 8.21221C6.28978 7.41381 6.6866 6.68304 7.28873 6.1443C7.81422 6.21427 8.29642 6.4727 8.64567 6.87152C8.99492 7.27034 9.18746 7.78242 9.18748 8.31255Z" fill="#BE4E54"/>
</svg>
