<svg width="14" height="14" viewBox="0 0 14 14" fill="none" xmlns="http://www.w3.org/2000/svg">
<path d="M9.625 3.5C9.625 3.03587 9.44063 2.59075 9.11244 2.26256C8.78425 1.93437 8.33913 1.75 7.875 1.75H3.5C3.03587 1.75 2.59075 1.93437 2.26256 2.26256C1.93437 2.59075 1.75 3.03587 1.75 3.5V7.875C1.75 8.33913 1.93437 8.78425 2.26256 9.11244C2.59075 9.44063 3.03587 9.625 3.5 9.625V6.125C3.5 5.42881 3.77656 4.76113 4.26884 4.26884C4.76113 3.77656 5.42881 3.5 6.125 3.5H9.625Z" fill="#626262"/>
<path fill-rule="evenodd" clip-rule="evenodd" d="M11.7374 4.88756C11.4092 4.55937 10.9641 4.375 10.5 4.375H6.125C5.66087 4.375 5.21575 4.55937 4.88756 4.88756C4.55937 5.21575 4.375 5.66087 4.375 6.125V10.5C4.375 10.9641 4.55937 11.4092 4.88756 11.7374C5.21575 12.0656 5.66087 12.25 6.125 12.25H10.5C10.9641 12.25 11.4092 12.0656 11.7374 11.7374C12.0656 11.4092 12.25 10.9641 12.25 10.5V6.125C12.25 5.66087 12.0656 5.21575 11.7374 4.88756ZM8.3125 9.77083C9.11791 9.77083 9.77083 9.11791 9.77083 8.3125C9.77083 7.50708 9.11791 6.85417 8.3125 6.85417C7.50708 6.85417 6.85417 7.50708 6.85417 8.3125C6.85417 9.11791 7.50708 9.77083 8.3125 9.77083Z" fill="#626262"/>
</svg>
