<svg width="14" height="14" viewBox="0 0 14 14" fill="none" xmlns="http://www.w3.org/2000/svg">
<g clip-path="url(#clip0_11170_19405)">
<path fill-rule="evenodd" clip-rule="evenodd" d="M11.6095 2.3905C11.4064 2.18731 11.1652 2.02613 10.8998 1.91616C10.6343 1.80619 10.3498 1.74959 10.0625 1.74959C9.77518 1.74959 9.49068 1.80619 9.22525 1.91616C8.95981 2.02613 8.71864 2.18731 8.5155 2.3905L5.8905 5.0155C5.64285 5.26293 5.4582 5.56618 5.35207 5.89978C5.24594 6.23338 5.22142 6.58757 5.28057 6.93261C5.33973 7.27765 5.48083 7.60346 5.69202 7.88265C5.90321 8.16184 6.17833 8.38627 6.49425 8.53708C6.59535 8.58918 6.67218 8.6786 6.70847 8.78639C6.74476 8.89417 6.73765 9.01185 6.68865 9.11449C6.63965 9.21712 6.5526 9.29664 6.44597 9.33618C6.33933 9.37573 6.22149 9.3722 6.11742 9.32633C5.67531 9.11515 5.29033 8.80098 4.9948 8.41019C4.69927 8.01941 4.50181 7.56342 4.419 7.08052C4.33619 6.59762 4.37045 6.1019 4.51891 5.63498C4.66736 5.16806 4.92568 4.74358 5.27217 4.39717L7.89717 1.77217C8.18017 1.48174 8.51803 1.25042 8.89115 1.09161C9.26427 0.932801 9.66521 0.849674 10.0707 0.847051C10.4762 0.844428 10.8782 0.922362 11.2533 1.07633C11.6285 1.2303 11.9693 1.45724 12.256 1.74397C12.5428 2.03071 12.7697 2.37154 12.9237 2.74668C13.0776 3.12181 13.1556 3.5238 13.1529 3.9293C13.1503 4.33479 13.0672 4.73573 12.9084 5.10885C12.7496 5.48197 12.5183 5.81983 12.2278 6.10283L11.2029 7.12775C11.1629 7.17073 11.1146 7.20521 11.0609 7.22912C11.0072 7.25303 10.9493 7.26589 10.8906 7.26693C10.8318 7.26796 10.7735 7.25716 10.719 7.23515C10.6645 7.21315 10.615 7.1804 10.5735 7.13885C10.5319 7.09731 10.4992 7.04782 10.4772 6.99335C10.4552 6.93887 10.4444 6.88052 10.4454 6.82178C10.4464 6.76303 10.4593 6.7051 10.4832 6.65144C10.5071 6.59777 10.5416 6.54947 10.5846 6.50942L11.6095 5.4845C11.8127 5.28136 11.9739 5.04019 12.0838 4.77475C12.1938 4.50932 12.2504 4.22481 12.2504 3.9375C12.2504 3.65018 12.1938 3.36568 12.0838 3.10025C11.9739 2.83481 11.8127 2.59363 11.6095 2.3905ZM7.29925 4.87958C7.34931 4.77494 7.43889 4.69446 7.54828 4.65584C7.65767 4.61723 7.77792 4.62364 7.88258 4.67367C8.32468 4.88485 8.70967 5.19902 9.0052 5.5898C9.30073 5.98059 9.49819 6.43657 9.581 6.91948C9.66381 7.40238 9.62955 7.8981 9.48109 8.36502C9.33263 8.83194 9.07432 9.25642 8.72783 9.60283L6.10283 12.2278C5.81983 12.5183 5.48197 12.7496 5.10885 12.9084C4.73573 13.0672 4.33479 13.1503 3.9293 13.1529C3.5238 13.1556 3.12181 13.0776 2.74668 12.9237C2.37154 12.7697 2.03071 12.5428 1.74397 12.256C1.45724 11.9693 1.2303 11.6285 1.07633 11.2533C0.922362 10.8782 0.844428 10.4762 0.847051 10.0707C0.849674 9.66521 0.932801 9.26427 1.09161 8.89115C1.25042 8.51803 1.48174 8.18017 1.77217 7.89717L2.79708 6.87225C2.83714 6.82927 2.88544 6.79479 2.9391 6.77088C2.99277 6.74697 3.0507 6.73411 3.10944 6.73307C3.16819 6.73203 3.22654 6.74284 3.28101 6.76484C3.33549 6.78685 3.38498 6.8196 3.42652 6.86114C3.46807 6.90269 3.50082 6.95217 3.52282 7.00665C3.54482 7.06113 3.55563 7.11948 3.55459 7.17822C3.55356 7.23696 3.5407 7.2949 3.51679 7.34856C3.49288 7.40223 3.4584 7.45053 3.41542 7.49058L2.3905 8.5155C2.18734 8.71865 2.02619 8.95984 1.91625 9.22527C1.8063 9.4907 1.74971 9.7752 1.74971 10.0625C1.74971 10.3498 1.8063 10.6343 1.91625 10.8997C2.02619 11.1652 2.18734 11.4063 2.3905 11.6095C2.59365 11.8127 2.83483 11.9738 3.10027 12.0838C3.3657 12.1937 3.65019 12.2503 3.9375 12.2503C4.2248 12.2503 4.50929 12.1937 4.77473 12.0838C5.04016 11.9738 5.28134 11.8127 5.4845 11.6095L8.1095 8.9845C8.35715 8.73707 8.5418 8.43382 8.64793 8.10022C8.75406 7.76662 8.77858 7.41243 8.71943 7.06739C8.66027 6.72235 8.51917 6.39654 8.30798 6.11735C8.09679 5.83816 7.82167 5.61373 7.50575 5.46292C7.45388 5.43818 7.4074 5.40347 7.36895 5.36076C7.3305 5.31806 7.30084 5.2682 7.28166 5.21403C7.26249 5.15986 7.25417 5.10244 7.25719 5.04505C7.26021 4.98767 7.2745 4.93144 7.29925 4.87958Z" fill="#626262"/>
</g>
<defs>
<clipPath id="clip0_11170_19405">
<rect width="14" height="14" fill="white"/>
</clipPath>
</defs>
</svg>
