<svg width="14" height="14" viewBox="0 0 14 14" fill="none" xmlns="http://www.w3.org/2000/svg">
<path fill-rule="evenodd" clip-rule="evenodd" d="M10.5013 1.75L3.50128 1.75001C2.53478 1.75001 1.75128 2.53352 1.75128 3.50001V9.3542C1.75128 10.3207 2.53478 11.1042 3.50128 11.1042H5.04689L6.62405 12.4262C6.83986 12.6071 7.15409 12.6081 7.37094 12.4284L8.96929 11.1042L10.5013 11.1042C11.4678 11.1042 12.2513 10.3207 12.2513 9.35419V3.5C12.2513 2.5335 11.4678 1.75 10.5013 1.75ZM7 8.60417C7.32217 8.60417 7.58333 8.343 7.58333 8.02083V6.85417C7.58333 6.532 7.32217 6.27083 7 6.27083C6.67783 6.27083 6.41667 6.532 6.41667 6.85417V8.02083C6.41667 8.343 6.67783 8.60417 7 8.60417ZM7 5.83333C6.59729 5.83333 6.27083 5.50687 6.27083 5.10417C6.27083 4.70146 6.59729 4.375 7 4.375C7.40271 4.375 7.72917 4.70146 7.72917 5.10417C7.72917 5.50687 7.40271 5.83333 7 5.83333Z" fill="#151515"/>
</svg>
