<svg width="14" height="14" viewBox="0 0 14 14" fill="none" xmlns="http://www.w3.org/2000/svg">
<path d="M5.33174 2.76757C5.31458 1.84595 6.07826 1.16667 7.00004 1.16667C7.92179 1.16667 8.68546 1.84591 8.66831 2.7675C8.64346 4.10307 8.44839 6.23091 7.68726 8.98582C7.48615 9.71374 6.51384 9.71375 6.31275 8.98582C5.5517 6.23095 5.35662 4.10315 5.33174 2.76757Z" fill="#E59D59"/>
<path d="M8.16671 11.6667C8.16671 12.311 7.64438 12.8333 7.00004 12.8333C6.35571 12.8333 5.83338 12.311 5.83338 11.6667C5.83338 11.0223 6.35571 10.5 7.00004 10.5C7.64438 10.5 8.16671 11.0223 8.16671 11.6667Z" fill="#E59D59"/>
</svg>
