<svg width="177" height="45" viewBox="0 0 177 45" fill="none" xmlns="http://www.w3.org/2000/svg">
<g filter="url(#filter0_di_62_114)">
<rect x="2" y="2.92041" width="173" height="40" rx="8" fill="#655ADD"/>
<path d="M14.8 29.256C13.8933 29.256 13.1253 29.0267 12.496 28.568C11.8773 28.1093 11.4027 27.4373 11.072 26.552C10.7413 25.6667 10.576 24.5947 10.576 23.336C10.576 22.056 10.7413 20.9733 11.072 20.088C11.4027 19.2027 11.8773 18.5307 12.496 18.072C13.1253 17.6133 13.8933 17.384 14.8 17.384C15.7067 17.384 16.4747 17.6133 17.104 18.072C17.7333 18.5307 18.208 19.2027 18.528 20.088C18.8587 20.9733 19.024 22.056 19.024 23.336C19.024 24.5947 18.8587 25.6667 18.528 26.552C18.208 27.4373 17.7333 28.1093 17.104 28.568C16.4747 29.0267 15.7067 29.256 14.8 29.256ZM14.8 27.688C15.3333 27.688 15.7813 27.528 16.144 27.208C16.5173 26.888 16.8 26.4027 16.992 25.752C17.184 25.1013 17.28 24.296 17.28 23.336C17.28 22.376 17.184 21.5707 16.992 20.92C16.8 20.2587 16.5173 19.768 16.144 19.448C15.7813 19.1173 15.3333 18.952 14.8 18.952C14.2667 18.952 13.8133 19.1173 13.44 19.448C13.0773 19.768 12.8 20.2587 12.608 20.92C12.416 21.5707 12.32 22.376 12.32 23.336C12.32 24.296 12.416 25.1013 12.608 25.752C12.8 26.4027 13.0773 26.888 13.44 27.208C13.8133 27.528 14.2667 27.688 14.8 27.688ZM20.7458 31.4V20.488H22.2818L22.3138 22.424L22.1218 22.328C22.3351 21.6667 22.6818 21.1653 23.1618 20.824C23.6524 20.472 24.2284 20.296 24.8898 20.296C25.7111 20.296 26.3831 20.504 26.9058 20.92C27.4284 21.3253 27.8178 21.864 28.0738 22.536C28.3298 23.208 28.4578 23.944 28.4578 24.744C28.4578 25.544 28.3298 26.28 28.0738 26.952C27.8178 27.624 27.4284 28.168 26.9058 28.584C26.3831 28.9893 25.7111 29.192 24.8898 29.192C24.4524 29.192 24.0471 29.1227 23.6738 28.984C23.3004 28.8347 22.9804 28.6267 22.7138 28.36C22.4578 28.0827 22.2711 27.752 22.1538 27.368L22.3618 27.144V31.4H20.7458ZM24.5858 27.704C25.2684 27.704 25.8018 27.448 26.1858 26.936C26.5698 26.424 26.7618 25.6933 26.7618 24.744C26.7618 23.7947 26.5698 23.064 26.1858 22.552C25.8018 22.04 25.2684 21.784 24.5858 21.784C24.1378 21.784 23.7484 21.896 23.4178 22.12C23.0871 22.3333 22.8258 22.6587 22.6338 23.096C22.4524 23.5333 22.3618 24.0827 22.3618 24.744C22.3618 25.4053 22.4524 25.9547 22.6338 26.392C22.8151 26.8293 23.0711 27.16 23.4018 27.384C23.7431 27.5973 24.1378 27.704 24.5858 27.704ZM34.0995 29.192C33.2995 29.192 32.6008 29.0107 32.0035 28.648C31.4168 28.2853 30.9582 27.768 30.6275 27.096C30.3075 26.424 30.1475 25.64 30.1475 24.744C30.1475 23.848 30.3075 23.0693 30.6275 22.408C30.9582 21.7467 31.4115 21.2293 31.9875 20.856C32.5742 20.4827 33.2622 20.296 34.0515 20.296C34.8088 20.296 35.4755 20.4773 36.0515 20.84C36.6275 21.192 37.0755 21.704 37.3955 22.376C37.7262 23.0373 37.8915 23.8373 37.8915 24.776V25.224H31.8435C31.8968 26.0347 32.1208 26.6533 32.5155 27.08C32.9208 27.496 33.4542 27.704 34.1155 27.704C34.6168 27.704 35.0328 27.5867 35.3635 27.352C35.6942 27.1067 35.9235 26.792 36.0515 26.408L37.7475 26.52C37.5022 27.3307 37.0595 27.9813 36.4195 28.472C35.7902 28.952 35.0168 29.192 34.0995 29.192ZM31.8435 23.928H36.1475C36.0835 23.2027 35.8595 22.664 35.4755 22.312C35.1022 21.96 34.6275 21.784 34.0515 21.784C33.4542 21.784 32.9635 21.9653 32.5795 22.328C32.1955 22.6907 31.9502 23.224 31.8435 23.928ZM40.0613 29V20.488H41.5493L41.5973 22.712L41.4213 22.584C41.5279 22.0613 41.7146 21.6347 41.9813 21.304C42.2586 20.9627 42.5946 20.712 42.9893 20.552C43.3839 20.3813 43.8053 20.296 44.2533 20.296C44.8933 20.296 45.4213 20.44 45.8373 20.728C46.2533 21.0053 46.5679 21.3893 46.7812 21.88C46.9946 22.36 47.1013 22.904 47.1013 23.512V29H45.4853V23.928C45.4853 23.192 45.3413 22.6373 45.0533 22.264C44.7759 21.8907 44.3546 21.704 43.7893 21.704C43.3946 21.704 43.0373 21.7893 42.7173 21.96C42.4079 22.1307 42.1573 22.3867 41.9653 22.728C41.7733 23.0587 41.6773 23.4693 41.6773 23.96V29H40.0613ZM62.5128 29V20.488H64.1448V29H62.5128ZM59.1848 29V27.64H66.9928V29H59.1848ZM59.3448 21.848V20.488H64.0008V21.848H59.3448ZM62.4168 19.256V17.576H64.0808V19.256H62.4168ZM68.8425 29V20.488H70.3305L70.3785 22.712L70.2025 22.584C70.3092 22.0613 70.4958 21.6347 70.7625 21.304C71.0398 20.9627 71.3758 20.712 71.7705 20.552C72.1652 20.3813 72.5865 20.296 73.0345 20.296C73.6745 20.296 74.2025 20.44 74.6185 20.728C75.0345 21.0053 75.3492 21.3893 75.5625 21.88C75.7758 22.36 75.8825 22.904 75.8825 23.512V29H74.2665V23.928C74.2665 23.192 74.1225 22.6373 73.8345 22.264C73.5572 21.8907 73.1358 21.704 72.5705 21.704C72.1758 21.704 71.8185 21.7893 71.4985 21.96C71.1892 22.1307 70.9385 22.3867 70.7465 22.728C70.5545 23.0587 70.4585 23.4693 70.4585 23.96V29H68.8425ZM91.55 29.256C90.6433 29.256 89.8753 29.0267 89.246 28.568C88.6273 28.1093 88.1527 27.4373 87.822 26.552C87.4913 25.6667 87.326 24.5947 87.326 23.336C87.326 22.056 87.4913 20.9733 87.822 20.088C88.1527 19.2027 88.6273 18.5307 89.246 18.072C89.8753 17.6133 90.6433 17.384 91.55 17.384C92.4567 17.384 93.2247 17.6133 93.854 18.072C94.4833 18.5307 94.958 19.2027 95.278 20.088C95.6087 20.9733 95.774 22.056 95.774 23.336C95.774 24.5947 95.6087 25.6667 95.278 26.552C94.958 27.4373 94.4833 28.1093 93.854 28.568C93.2247 29.0267 92.4567 29.256 91.55 29.256ZM91.55 27.688C92.0833 27.688 92.5313 27.528 92.894 27.208C93.2673 26.888 93.55 26.4027 93.742 25.752C93.934 25.1013 94.03 24.296 94.03 23.336C94.03 22.376 93.934 21.5707 93.742 20.92C93.55 20.2587 93.2673 19.768 92.894 19.448C92.5313 19.1173 92.0833 18.952 91.55 18.952C91.0167 18.952 90.5633 19.1173 90.19 19.448C89.8273 19.768 89.55 20.2587 89.358 20.92C89.166 21.5707 89.07 22.376 89.07 23.336C89.07 24.296 89.166 25.1013 89.358 25.752C89.55 26.4027 89.8273 26.888 90.19 27.208C90.5633 27.528 91.0167 27.688 91.55 27.688ZM100.136 29L97.0638 20.488H98.8078L101.144 27.288L103.48 20.488H105.224L102.152 29H100.136ZM110.85 29.192C110.05 29.192 109.351 29.0107 108.754 28.648C108.167 28.2853 107.708 27.768 107.378 27.096C107.058 26.424 106.898 25.64 106.898 24.744C106.898 23.848 107.058 23.0693 107.378 22.408C107.708 21.7467 108.162 21.2293 108.738 20.856C109.324 20.4827 110.012 20.296 110.802 20.296C111.559 20.296 112.226 20.4773 112.802 20.84C113.378 21.192 113.826 21.704 114.146 22.376C114.476 23.0373 114.642 23.8373 114.642 24.776V25.224H108.594C108.647 26.0347 108.871 26.6533 109.266 27.08C109.671 27.496 110.204 27.704 110.866 27.704C111.367 27.704 111.783 27.5867 112.114 27.352C112.444 27.1067 112.674 26.792 112.802 26.408L114.498 26.52C114.252 27.3307 113.81 27.9813 113.17 28.472C112.54 28.952 111.767 29.192 110.85 29.192ZM108.594 23.928H112.898C112.834 23.2027 112.61 22.664 112.226 22.312C111.852 21.96 111.378 21.784 110.802 21.784C110.204 21.784 109.714 21.9653 109.33 22.328C108.946 22.6907 108.7 23.224 108.594 23.928ZM119.035 29V20.488H120.315L120.459 22.664L120.315 22.648C120.422 21.912 120.651 21.368 121.003 21.016C121.355 20.664 121.841 20.488 122.459 20.488H124.267V21.896H122.523C122.118 21.896 121.777 21.976 121.499 22.136C121.222 22.2853 121.009 22.5147 120.859 22.824C120.721 23.1227 120.651 23.496 120.651 23.944V29H119.035ZM116.875 29V27.64H123.307V29H116.875ZM116.875 21.848V20.488H119.947V21.848H116.875ZM125.701 29V20.488H127.109L127.173 22.408L126.997 22.36C127.104 21.7093 127.312 21.2027 127.621 20.84C127.941 20.4773 128.341 20.296 128.821 20.296C129.333 20.296 129.717 20.4773 129.973 20.84C130.24 21.2027 130.405 21.7413 130.469 22.456H130.293C130.389 21.7733 130.608 21.2453 130.949 20.872C131.29 20.488 131.717 20.296 132.229 20.296C132.901 20.296 133.386 20.5307 133.685 21C133.994 21.4587 134.149 22.2107 134.149 23.256V29H132.581V23.528C132.581 22.8453 132.506 22.3707 132.357 22.104C132.218 21.8373 132 21.704 131.701 21.704C131.509 21.704 131.333 21.768 131.173 21.896C131.024 22.024 130.906 22.2267 130.821 22.504C130.736 22.7707 130.693 23.1227 130.693 23.56V29H129.157V23.528C129.157 22.8667 129.088 22.3973 128.949 22.12C128.821 21.8427 128.602 21.704 128.293 21.704C128.09 21.704 127.914 21.768 127.765 21.896C127.616 22.024 127.493 22.2267 127.397 22.504C127.312 22.7707 127.269 23.1227 127.269 23.56V29H125.701ZM139.263 29V20.488H140.895V29H139.263ZM135.935 29V27.64H143.743V29H135.935ZM136.095 21.848V20.488H140.751V21.848H136.095ZM139.167 19.256V17.576H140.831V19.256H139.167ZM145.593 29V20.488H147.081L147.129 22.712L146.953 22.584C147.059 22.0613 147.246 21.6347 147.513 21.304C147.79 20.9627 148.126 20.712 148.521 20.552C148.915 20.3813 149.337 20.296 149.785 20.296C150.425 20.296 150.953 20.44 151.369 20.728C151.785 21.0053 152.099 21.3893 152.312 21.88C152.526 22.36 152.633 22.904 152.633 23.512V29H151.017V23.928C151.017 23.192 150.873 22.6373 150.585 22.264C150.307 21.8907 149.886 21.704 149.321 21.704C148.926 21.704 148.569 21.7893 148.249 21.96C147.939 22.1307 147.689 22.3867 147.497 22.728C147.305 23.0587 147.209 23.4693 147.209 23.96V29H145.593ZM158.034 29.192C157.309 29.192 156.68 29.016 156.146 28.664C155.613 28.3013 155.202 27.7893 154.914 27.128C154.626 26.456 154.482 25.6613 154.482 24.744C154.482 23.8267 154.626 23.0373 154.914 22.376C155.202 21.704 155.613 21.192 156.146 20.84C156.68 20.4773 157.309 20.296 158.034 20.296C158.632 20.296 159.154 20.4347 159.602 20.712C160.05 20.9893 160.376 21.3147 160.578 21.688V17.64H162.194V29H160.69L160.642 27.688C160.408 28.1467 160.066 28.5147 159.618 28.792C159.17 29.0587 158.642 29.192 158.034 29.192ZM158.306 27.704C158.776 27.704 159.176 27.5867 159.506 27.352C159.848 27.1067 160.109 26.7653 160.29 26.328C160.482 25.88 160.578 25.352 160.578 24.744C160.578 24.1147 160.482 23.5813 160.29 23.144C160.109 22.7067 159.848 22.3707 159.506 22.136C159.165 21.9013 158.754 21.784 158.274 21.784C157.624 21.784 157.112 22.0453 156.738 22.568C156.365 23.0907 156.178 23.816 156.178 24.744C156.178 25.6613 156.365 26.3867 156.738 26.92C157.112 27.4427 157.634 27.704 158.306 27.704Z" fill="#EDEDED"/>
</g>
<defs>
<filter id="filter0_di_62_114" x="0" y="0.92041" width="177" height="44" filterUnits="userSpaceOnUse" color-interpolation-filters="sRGB">
<feFlood flood-opacity="0" result="BackgroundImageFix"/>
<feColorMatrix in="SourceAlpha" type="matrix" values="0 0 0 0 0 0 0 0 0 0 0 0 0 0 0 0 0 0 127 0" result="hardAlpha"/>
<feMorphology radius="2" operator="dilate" in="SourceAlpha" result="effect1_dropShadow_62_114"/>
<feOffset/>
<feComposite in2="hardAlpha" operator="out"/>
<feColorMatrix type="matrix" values="0 0 0 0 0.396078 0 0 0 0 0.352941 0 0 0 0 0.866667 0 0 0 0.4 0"/>
<feBlend mode="normal" in2="BackgroundImageFix" result="effect1_dropShadow_62_114"/>
<feBlend mode="normal" in="SourceGraphic" in2="effect1_dropShadow_62_114" result="shape"/>
<feColorMatrix in="SourceAlpha" type="matrix" values="0 0 0 0 0 0 0 0 0 0 0 0 0 0 0 0 0 0 127 0" result="hardAlpha"/>
<feOffset dy="1"/>
<feGaussianBlur stdDeviation="1"/>
<feComposite in2="hardAlpha" operator="arithmetic" k2="-1" k3="1"/>
<feColorMatrix type="matrix" values="0 0 0 0 1 0 0 0 0 1 0 0 0 0 1 0 0 0 0.32 0"/>
<feBlend mode="normal" in2="shape" result="effect2_innerShadow_62_114"/>
</filter>
</defs>
</svg>
