<svg width="14" height="14" viewBox="0 0 14 14" fill="none" xmlns="http://www.w3.org/2000/svg">
<path fill-rule="evenodd" clip-rule="evenodd" d="M3.64573 12.6873C2.35711 12.6873 1.3125 11.6427 1.3125 10.354L1.3125 3.64584C1.3125 2.35717 2.35717 1.3125 3.64583 1.3125L10.3542 1.3125C11.6428 1.3125 12.6875 2.35717 12.6875 3.64583V10.354C12.6875 11.6427 11.6428 12.6874 10.3542 12.6874H10.2974L3.64573 12.6873ZM6.43837 3.02613C6.20347 2.78669 5.81631 2.96586 5.81631 3.31401V3.94186C5.03076 3.96691 4.44977 4.13997 4.06431 4.56742C3.64733 5.02983 3.50899 5.73581 3.50001 6.67195C3.49763 6.92085 3.82039 7.03532 3.93791 6.78868C4.07963 6.49124 4.19274 6.31455 4.44474 6.19116C4.69468 6.06878 5.09644 5.99202 5.81631 5.97978V6.60265C5.81631 6.95081 6.20347 7.12998 6.43837 6.89054L8.05158 5.24622C8.20503 5.0898 8.20503 4.82686 8.05158 4.67045L6.43837 3.02613ZM7.56163 10.9739C7.79653 11.2133 8.18369 11.0341 8.18369 10.686V10.0581C8.96924 10.0331 9.55023 9.86003 9.93569 9.43258C10.3527 8.97017 10.491 8.26419 10.5 7.32805C10.5024 7.07915 10.1796 6.96468 10.0621 7.21132C9.92037 7.50876 9.80726 7.68545 9.55526 7.80884C9.30532 7.93121 8.90356 8.00798 8.18369 8.02022V7.39735C8.18369 7.04919 7.79653 6.87002 7.56163 7.10946L5.94842 8.75378C5.79497 8.9102 5.79497 9.17314 5.94842 9.32955L7.56163 10.9739Z" fill="#4E80EE"/>
</svg>
