<svg width="14" height="14" viewBox="0 0 14 14" fill="none" xmlns="http://www.w3.org/2000/svg">
<path fill-rule="evenodd" clip-rule="evenodd" d="M5.48781 2.01695C6.16309 0.859316 7.83574 0.859313 8.51103 2.01695L12.6048 9.03488C13.2854 10.2015 12.4438 11.6666 11.0932 11.6666H2.90563C1.555 11.6666 0.713469 10.2015 1.39401 9.03488L5.48781 2.01695ZM7 4.66667C7.32216 4.66667 7.58333 4.92783 7.58333 5.25V7C7.58333 7.32217 7.32216 7.58333 7 7.58333C6.67783 7.58333 6.41666 7.32217 6.41666 7V5.25C6.41666 4.92783 6.67783 4.66667 7 4.66667ZM6.27083 8.75C6.27083 8.34729 6.59729 8.02083 7 8.02083C7.40271 8.02083 7.72916 8.34729 7.72916 8.75C7.72916 9.15271 7.40271 9.47917 7 9.47917C6.59729 9.47917 6.27083 9.15271 6.27083 8.75Z" fill="#BE4E54"/>
</svg>
