<svg width="14" height="14" viewBox="0 0 14 14" fill="none" xmlns="http://www.w3.org/2000/svg">
<path fill-rule="evenodd" clip-rule="evenodd" d="M1.3125 10.3541C1.3125 11.6427 2.3571 12.6874 3.64572 12.6874L10.2974 12.6874H10.3542C11.6428 12.6874 12.6875 11.6428 12.6875 10.3541V3.64588C12.6875 2.35722 11.6428 1.31255 10.3542 1.31255L3.64583 1.31256C2.35716 1.31256 1.31249 2.35723 1.31249 3.64589L1.3125 10.3541ZM6.73971 3.8788C6.68985 3.67581 6.52109 3.52588 6.31675 3.50305C6.11241 3.48022 5.91572 3.58931 5.82378 3.77646L4.48587 6.50006H2.82455C2.55326 6.50006 2.33333 6.72391 2.33333 7.00005C2.33333 7.2762 2.55326 7.50005 2.82455 7.50005H4.78947C4.97553 7.50005 5.14562 7.39305 5.22883 7.22366L6.10866 5.4326L7.26027 10.1213C7.31013 10.3243 7.47889 10.4742 7.68323 10.4971C7.88757 10.5199 8.08427 10.4108 8.1762 10.2236L9.51412 7.50005H11.1754C11.4467 7.50005 11.6667 7.2762 11.6667 7.00005C11.6667 6.72391 11.4467 6.50006 11.1754 6.50006H9.21052C9.02446 6.50006 8.85436 6.60706 8.77115 6.77645L7.89133 8.56751L6.73971 3.8788Z" fill="#626262"/>
</svg>
