<svg width="14" height="14" viewBox="0 0 14 14" fill="none" xmlns="http://www.w3.org/2000/svg">
<path fill-rule="evenodd" clip-rule="evenodd" d="M3.5 1.75C2.5335 1.75 1.75 2.5335 1.75 3.5V10.5C1.75 11.4665 2.5335 12.25 3.5 12.25H7.30781C6.07652 10.8758 6.12118 8.76238 7.44179 7.44178C8.7624 6.12117 10.8758 6.0765 12.25 7.30777V3.5C12.25 2.5335 11.4665 1.75 10.5 1.75H3.5ZM5.91477 4.05548C6.1725 4.24877 6.22473 4.61441 6.03143 4.87214L4.93965 6.32786C4.75389 6.57553 4.407 6.63495 4.14941 6.46322L3.49316 6.02572C3.2251 5.84701 3.15266 5.48484 3.33137 5.21678C3.51007 4.94872 3.87225 4.87629 4.14031 5.05499L4.33741 5.1864L5.0981 4.17214C5.2914 3.91441 5.65703 3.86218 5.91477 4.05548ZM7.61714 5.25C7.61714 4.92783 7.87831 4.66667 8.20047 4.66667H9.36714C9.68931 4.66667 9.95047 4.92783 9.95047 5.25C9.95047 5.57217 9.68931 5.83333 9.36714 5.83333H8.20047C7.87831 5.83333 7.61714 5.57217 7.61714 5.25ZM5.91477 7.55613C6.1725 7.74943 6.22473 8.11507 6.03143 8.3728L4.93965 9.82851C4.75389 10.0762 4.407 10.1356 4.14941 9.96388L3.49316 9.52638C3.2251 9.34767 3.15266 8.9855 3.33137 8.71744C3.51007 8.44938 3.87225 8.37695 4.14031 8.55565L4.33741 8.68705L5.0981 7.6728C5.2914 7.41507 5.65703 7.36283 5.91477 7.55613Z" fill="#E59D59"/>
<path fill-rule="evenodd" clip-rule="evenodd" d="M8.33752 8.33752C8.56533 8.10972 8.93467 8.10972 9.16248 8.33752L9.91667 9.09171L10.6709 8.33752C10.8987 8.10972 11.268 8.10972 11.4958 8.33752C11.7236 8.56533 11.7236 8.93467 11.4958 9.16248L10.7416 9.91667L11.4958 10.6709C11.7236 10.8987 11.7236 11.268 11.4958 11.4958C11.268 11.7236 10.8987 11.7236 10.6709 11.4958L9.91667 10.7416L9.16248 11.4958C8.93467 11.7236 8.56533 11.7236 8.33752 11.4958C8.10972 11.268 8.10972 10.8987 8.33752 10.6709L9.09171 9.91667L8.33752 9.16248C8.10972 8.93467 8.10972 8.56533 8.33752 8.33752Z" fill="#E59D59"/>
</svg>
